<?xml version="1.0" encoding="UTF-8"?>
<svg version="1.1" viewBox="0 0 900 900" width="1280" height="1280" xmlns="http://www.w3.org/2000/svg">
<path transform="translate(0)" d="m0 0h900v900h-900z" fill="#FDFDFD"/>
<path transform="translate(437,215)" d="m0 0h22l16 3 17 6 4 4 9 32 12 37 15 39 12 25v7l-8 16-5 7 1 10 2 18v37l-7-1-38-6-3-3-5-12-4-14-1-7-3 1-9 11-10 14-14 24-11 23-9 24-5 19-3 22v45l4 35 4 23v3l9-4 4-1h12l11 3 6 4 6 7 2 5 1 9-2 11-4 10-2 4-2 1h-121l5-9 8-15 5-15 3-13v-23l-5-17-7-16-4-15-1-7v-15l3-14 7-14 13-13 6-11-1-8-5-4-2-1h-8l-13 4-11 7-10 10-8 14-4 13-1 8v18l3 17 4 23v16l-3 16-4 10-6 9-9 8-12 5-5 1h-14l-14-3-10-6-7-9-5-13-1-6v-18l4-20 7-20 8-16 7-11 10-13 22-22 11-15 11-19 13-29 10-28 12-41 7-8 9-13 11-20 21 3h10l14-3 9-5 5-5 6-8 4-8 3-12 1-10v-22l-2-19-5-25-3-14z" fill="#191919"/>
<path transform="translate(384,194)" d="m0 0h12l5 3 4 6 1 4v11l-5 21-14 45-8 24-15 37-9 17-10 14-7 6-2 1h-8l-6-5-6-12-5-19-6-33-2-16v-33l4-18 4-10 8-11 8-7 13-8 17-8 23-8z" fill="#191919"/>
<path transform="translate(510,194)" d="m0 0h10l17 5 24 10 14 8 10 9 6 7 6 13 4 15 1 8v22l-3 25-6 33-6 21-5 9-7 5-6-1-6-4-7-7-9-15-12-25-11-29-9-26-9-29-7-27v-16l3-6 5-4z" fill="#191919"/>
<path transform="translate(606,426)" d="m0 0h5l-2 5-10 22-6 18-3 15v18l1 7v15l-5 10-9 7-9 4-6 1h-10l-9-2-10-6-8-9-5-11-1-5v-12l4-21 7-16 8-11 8-8 14-9 14-6 16-4z" fill="#191919"/>
<path transform="translate(651,518)" d="m0 0h9l9 3 4 5-1 6-4 4-15-1-8 4-6 8-2 8v12l4 18 6 21 3 19v12l-3 15-5 12-7 9-7 7-14 8-14 5-13 2h-14l-4-5v-6l3-4 3-1 17-2 16-5 10-6 4-2 2-4 5-8 3-11 1-14-3-17-9-33-1-7v-17l3-12 4-8 5-6 11-7z" fill="#191919"/>
<path transform="translate(481,520)" d="m0 0h13l11 4 5 6 1 3-5 8-9 7h-2l1 4 6 5 11 3 15 1-3 3-6 2h-14l-10-3-9-6h-18l-8-3-5-5-3-4 1-3 8 5 13 2h9l-3-7-5-8-2-6v-5l3-2z" fill="#191919"/>
<path transform="translate(405,277)" d="m0 0h10l5 3 5 6 3 9v9l-4 11-8 7-8 1-7-3-7-8-2-7v-12l3-8 5-6z" fill="#191919"/>
<path transform="translate(483,277)" d="m0 0h8l7 4 5 8 2 12-3 12-5 6-5 3-7 1-8-4-6-9-2-8 1-10 4-8 5-5z" fill="#FEFEFE"/>
<path transform="translate(454,358)" d="m0 0 6 1 8 4v4l-9 6v11l5 5h11l-1 2-3 1h-7l-9-5-5 4-3 1h-8l-5-3 2-1 9 1 6-4 4-11-12-8 1-3z" fill="#FEFEFE"/>
<path transform="translate(547,562)" d="m0 0 18 4 33 9 2 2-12-1-36-5h-4l-2-7z" fill="#191919"/>
<path transform="translate(474,482)" d="m0 0h6l4 4 4 9 1 9-5-5-6-5-9-1-8 5-2-1 6-8h2v-2h2v-2z" fill="#191919"/>
<path transform="translate(547,574)" d="m0 0 6 1 27 11 17 7 1 2-9-2-42-12-1-5z" fill="#191919"/>
<path transform="translate(545,493)" d="m0 0h7l5 6 4 12v2l-4-2-5-6-6-2-8 1-5 3 2-5 8-8z" fill="#FEFEFE"/>
<path transform="translate(484,305)" d="m0 0h6l4 6-2 5-2 2-7-1-3-5 3-6z" fill="#191919"/>
<path transform="translate(408,305)" d="m0 0 5 1 3 3-1 7-6 3-5-4v-7z" fill="#FEFEFE"/>
</svg>
