<svg width="40" height="41" viewBox="0 0 40 41" fill="none" xmlns="http://www.w3.org/2000/svg">
<g clip-path="url(#clip0_43_36)">
<path d="M15.0001 2.63464V7.63464M25.0001 2.63464V7.63464M15.0001 34.3013V39.3013M25.0001 34.3013V39.3013M33.3334 15.968H38.3334M33.3334 24.3013H38.3334M1.66675 15.968H6.66675M1.66675 24.3013H6.66675M10.0001 7.63464H30.0001C31.841 7.63464 33.3334 9.12703 33.3334 10.968V30.968C33.3334 32.8089 31.841 34.3013 30.0001 34.3013H10.0001C8.15913 34.3013 6.66675 32.8089 6.66675 30.968V10.968C6.66675 9.12703 8.15913 7.63464 10.0001 7.63464ZM15.0001 15.968H25.0001V25.968H15.0001V15.968Z" stroke="#1E1E1E" stroke-width="4" stroke-linecap="round" stroke-linejoin="round"/>
</g>
<defs>
<clipPath id="clip0_43_36">
<rect width="40" height="40" fill="white" transform="translate(0 0.968018)"/>
</clipPath>
</defs>
</svg>
