<svg width="25" height="24" viewBox="0 0 25 24" fill="none" xmlns="http://www.w3.org/2000/svg">
<g clip-path="url(#clip0_42_1994)">
<path d="M12.4897 2.163C15.6937 2.163 16.0737 2.175 17.3397 2.233C20.5917 2.381 22.1107 3.924 22.2587 7.152C22.3167 8.417 22.3277 8.797 22.3277 12.001C22.3277 15.206 22.3157 15.585 22.2587 16.85C22.1097 20.075 20.5947 21.621 17.3397 21.769C16.0737 21.827 15.6957 21.839 12.4897 21.839C9.28575 21.839 8.90575 21.827 7.64075 21.769C4.38075 21.62 2.86975 20.07 2.72175 16.849C2.66375 15.584 2.65175 15.205 2.65175 12C2.65175 8.796 2.66475 8.417 2.72175 7.151C2.87075 3.924 4.38575 2.38 7.64075 2.232C8.90675 2.175 9.28575 2.163 12.4897 2.163ZM12.4897 0C9.23075 0 8.82275 0.014 7.54275 0.072C3.18475 0.272 0.762746 2.69 0.562746 7.052C0.503746 8.333 0.489746 8.741 0.489746 12C0.489746 15.259 0.503746 15.668 0.561746 16.948C0.761746 21.306 3.17975 23.728 7.54175 23.928C8.82275 23.986 9.23075 24 12.4897 24C15.7487 24 16.1577 23.986 17.4377 23.928C21.7917 23.728 24.2197 21.31 24.4167 16.948C24.4757 15.668 24.4897 15.259 24.4897 12C24.4897 8.741 24.4757 8.333 24.4177 7.053C24.2217 2.699 21.8007 0.273 17.4387 0.073C16.1577 0.014 15.7487 0 12.4897 0ZM12.4897 5.838C9.08675 5.838 6.32775 8.597 6.32775 12C6.32775 15.403 9.08675 18.163 12.4897 18.163C15.8927 18.163 18.6517 15.404 18.6517 12C18.6517 8.597 15.8927 5.838 12.4897 5.838ZM12.4897 16C10.2807 16 8.48975 14.21 8.48975 12C8.48975 9.791 10.2807 8 12.4897 8C14.6987 8 16.4897 9.791 16.4897 12C16.4897 14.21 14.6987 16 12.4897 16ZM18.8957 4.155C18.0997 4.155 17.4547 4.8 17.4547 5.595C17.4547 6.39 18.0997 7.035 18.8957 7.035C19.6907 7.035 20.3347 6.39 20.3347 5.595C20.3347 4.8 19.6907 4.155 18.8957 4.155Z" fill="#1E1E1E"/>
</g>
<defs>
<clipPath id="clip0_42_1994">
<rect width="24" height="24" fill="white" transform="translate(0.489746)"/>
</clipPath>
</defs>
</svg>
