<svg width="25" height="24" viewBox="0 0 25 24" fill="none" xmlns="http://www.w3.org/2000/svg">
<g clip-path="url(#clip0_42_1998)">
<path d="M19.4897 0H5.48975C2.72875 0 0.489746 2.239 0.489746 5V19C0.489746 21.761 2.72875 24 5.48975 24H19.4897C22.2517 24 24.4897 21.761 24.4897 19V5C24.4897 2.239 22.2517 0 19.4897 0ZM8.48975 19H5.48975V8H8.48975V19ZM6.98975 6.732C6.02375 6.732 5.23975 5.942 5.23975 4.968C5.23975 3.994 6.02375 3.204 6.98975 3.204C7.95575 3.204 8.73975 3.994 8.73975 4.968C8.73975 5.942 7.95675 6.732 6.98975 6.732ZM20.4897 19H17.4897V13.396C17.4897 10.028 13.4897 10.283 13.4897 13.396V19H10.4897V8H13.4897V9.765C14.8857 7.179 20.4897 6.988 20.4897 12.241V19Z" fill="#1E1E1E"/>
</g>
<defs>
<clipPath id="clip0_42_1998">
<rect width="24" height="24" fill="white" transform="translate(0.489746)"/>
</clipPath>
</defs>
</svg>
